/* XPM */
static char *_fec933e1fd74779dc094db8855f923e5kETDEJYMxThYYL8[] = {
/* columns rows colors chars-per-pixel */
"64 64 4 1 ",
"  c None",
". c #1B1B1B",
"X c red",
"o c white",
/* pixels */
"                                                                ",
"                                                                ",
"                                                                ",
"                                                                ",
"            ........................................            ",
"            ........................................            ",
"            ........................................            ",
"            ........................................            ",
"        ....oooooooooooooooooooooooooooooooooooooooo....        ",
"        ....oooooooooooooooooooooooooooooooooooooooo....        ",
"        ....oooooooooooooooooooooooooooooooooooooooo....        ",
"        ....oooooooooooooooooooooooooooooooooooooooo....        ",
"    ....oooooooooooooooooooooooooooooooooooooooooooooooo....    ",
"    ....oooooooooooooooooooooooooooooooooooooooooooooooo....    ",
"    ....oooooooooooooooooooooooooooooooooooooooooooooooo....    ",
"    ....oooooooooooooooooooooooooooooooooooooooooooooooo....    ",
"    ....ooooooooooooooooooooXXXXXXXXoooooooooooooooooooo....    ",
"    ....ooooooooooooooooooooXXXXXXXXoooooooooooooooooooo....    ",
"    ....ooooooooooooooooooooXXXXXXXXoooooooooooooooooooo....    ",
"    ....ooooooooooooooooooooXXXXXXXXoooooooooooooooooooo....    ",
"    ....ooooooooooooooooooooXXXXXXXXoooooooooooooooooooo....    ",
"    ....ooooooooooooooooooooXXXXXXXXoooooooooooooooooooo....    ",
"    ....ooooooooooooooooooooXXXXXXXXoooooooooooooooooooo....    ",
"    ....ooooooooooooooooooooXXXXXXXXoooooooooooooooooooo....    ",
"    ....ooooooooooooooooooooXXXXXXXXoooooooooooooooooooo....    ",
"    ....ooooooooooooooooooooXXXXXXXXoooooooooooooooooooo....    ",
"    ....ooooooooooooooooooooXXXXXXXXoooooooooooooooooooo....    ",
"    ....ooooooooooooooooooooXXXXXXXXoooooooooooooooooooo....    ",
"    ....ooooooooooooooooooooXXXXXXXXoooooooooooooooooooo....    ",
"    ....ooooooooooooooooooooXXXXXXXXoooooooooooooooooooo....    ",
"    ....ooooooooooooooooooooXXXXXXXXoooooooooooooooooooo....    ",
"    ....ooooooooooooooooooooXXXXXXXXoooooooooooooooooooo....    ",
"    ....ooooooooooooooooooooXXXXXXXXoooooooooooooooooooo....    ",
"    ....ooooooooooooooooooooXXXXXXXXoooooooooooooooooooo....    ",
"    ....ooooooooooooooooooooXXXXXXXXoooooooooooooooooooo....    ",
"    ....ooooooooooooooooooooXXXXXXXXoooooooooooooooooooo....    ",
"    ....oooooooooooooooooooooooooooooooooooooooooooooooo....    ",
"    ....oooooooooooooooooooooooooooooooooooooooooooooooo....    ",
"    ....oooooooooooooooooooooooooooooooooooooooooooooooo....    ",
"    ....oooooooooooooooooooooooooooooooooooooooooooooooo....    ",
"    ....ooooooooooooooooooooXXXXXXXXoooooooooooooooooooo....    ",
"    ....ooooooooooooooooooooXXXXXXXXoooooooooooooooooooo....    ",
"    ....ooooooooooooooooooooXXXXXXXXoooooooooooooooooooo....    ",
"    ....ooooooooooooooooooooXXXXXXXXoooooooooooooooooooo....    ",
"    ....ooooooooooooooooooooXXXXXXXXoooooooooooooooooooo....    ",
"    ....ooooooooooooooooooooXXXXXXXXoooooooooooooooooooo....    ",
"    ....ooooooooooooooooooooXXXXXXXXoooooooooooooooooooo....    ",
"    ....ooooooooooooooooooooXXXXXXXXoooooooooooooooooooo....    ",
"    ....oooooooooooooooooooooooooooooooooooooooooooooooo....    ",
"    ....oooooooooooooooooooooooooooooooooooooooooooooooo....    ",
"    ....oooooooooooooooooooooooooooooooooooooooooooooooo....    ",
"    ....oooooooooooooooooooooooooooooooooooooooooooooooo....    ",
"        ....oooooooooooooooooooooooooooooooooooooooo....        ",
"        ....oooooooooooooooooooooooooooooooooooooooo....        ",
"        ....oooooooooooooooooooooooooooooooooooooooo....        ",
"        ....oooooooooooooooooooooooooooooooooooooooo....        ",
"            ........................................            ",
"            ........................................            ",
"            ........................................            ",
"            ........................................            ",
"                                                                ",
"                                                                ",
"                                                                ",
"                                                                ",
};
