/* XPM */
static char *_c6ed85c3b92451aeb3114153c6e0336rnpaWMSO1IwHt98i[] = {
/* columns rows colors chars-per-pixel */
"64 64 7 1 ",
"  c None",
". c black",
"X c #4A4A5A",
"o c #E66A4A",
"O c #8B8B94",
"+ c #C5C5D5",
"@ c white",
/* pixels */
"                                                                ",
"                                                                ",
"                                                                ",
"                                                                ",
"        XXXXXXXXXXXXXXXX                XXXXXXXXXXXXXXXX        ",
"        XXXXXXXXXXXXXXXX                XXXXXXXXXXXXXXXX        ",
"        XXXXXXXXXXXXXXXX                XXXXXXXXXXXXXXXX        ",
"        XXXXXXXXXXXXXXXX                XXXXXXXXXXXXXXXX        ",
"  XXXXXXXXXXOOOOOOOOXXXXXXXXXXXXXXXXXXXXXXXXOOOOOOOOXXXXXXXXXX  ",
"  XXXXXXXXXXOOOOOOOOXXXXXXXXXXXXXXXXXXXXXXXXOOOOOOOOXXXXXXXXXX  ",
"  XXXXXXXXXXOOOOOOOOXXXXXXXXXXXXXXXXXXXXXXXXOOOOOOOOXXXXXXXXXX  ",
"  XXXXXXXXXXOOOOOOOOXXXXXXXXXXXXXXXXXXXXXXXXOOOOOOOOXXXXXXXXXX  ",
"  XXXX@@@@@@@@@@@@@@@@@@@@@@@@@@@@@@@@@@@@@@@@@@@@@@@@@@@@XXXX  ",
"  XXXX@@@@@@@@@@@@@@@@@@@@@@@@@@@@@@@@@@@@@@@@@@@@@@@@@@@@XXXX  ",
"  XXXX@@@@@@@@@@@@@@@@@@@@@@@@@@@@@@@@@@@@@@@@@@@@@@@@@@@@XXXX  ",
"  XXXX@@@@@@@@@@@@@@@@@@@@@@@@@@@@@@@@@@@@@@@@@@@@@@@@@@@@XXXX  ",
"  XXXX@@@@@@@@@@@@@@@@@@@@@@@@@@@@@@@@@@@@@@@@@@@@@@@@@@@@XXXX  ",
"  XXXX@@@@@@@@@@@@@@@@@@@@@@@@@@@@@@@@@@@@@@@@@@@@@@@@@@@@XXXX  ",
"  XXXX@@@@@@@@@@@@@@@@@@@@@@@@@@@@@@@@@@@@@@@@@@@@@@@@@@@@XXXX  ",
"  XXXX@@@@@@@@@@@@@@@@@@@@@@@@@@@@@@@@@@@@@@@@@@@@@@@@@@@@XXXX  ",
"  XXXX++++++++++++++++++++++++++++++++++++++++++++++++++++XXXX  ",
"  XXXX++++++++++++++++++++++++++++++++++++++++++++++++++++XXXX  ",
"  XXXX++++++++++++++++++++++++++++++++++++++++++++++++++++XXXX  ",
"  XXXX++++++++++++++++++++++++++++++++++++++++++++++++++++XXXX  ",
"  XXXX++++++++++++++++++++++++++++++++++++++++++++++++++++XXXX  ",
"  XXXX++++++++++++++++++++++++++++++++++++++++++++++++++++XXXX  ",
"  XXXX++++++++++++++++++++++++++++++++++++++++++++++++++++XXXX  ",
"  XXXX++++++++++++++++++++++++++++++++++++++++++++++++++++XXXX  ",
"  XXXX++++++++++++++++++++++++++++++++++++++++++++++++++++XXXX  ",
"  XXXX++++++++++++++++++++++++++++++++++++++++++++++++++++XXXX  ",
"  XXXX++++++++++++++++++++++++++++++++++++++++++++++++++++XXXX  ",
"  XXXX++++++++++++++++++++++++++++++++++++++++++++++++++++XXXX  ",
"  XXXX++++++++++++++++++++++++++++++++++++++++++++++++++++XXXX  ",
"  XXXX++++++++++++++++++++++++++++++++++++++++++++++++++++XXXX  ",
"  XXXX++++++++++++++++++++++++++++++++++++++++++++++++++++XXXX  ",
"  XXXX++++++++++++++++++++++++++++++++++++++++++++++++++++XXXX  ",
"  XXXX++++++++++++++++++++++++++++++++++++++++++++++++++++XXXX  ",
"  XXXX++++++++++++++++++++++++++++++++++++++++++++++++++++XXXX  ",
"  XXXX++++++++++++++++++++++++++++++++++++++++++++++++++++XXXX  ",
"  XXXX++++++++++++++++++++++++++++++++++++++++++++++++++++XXXX  ",
"  XXXXXXXXXXOOOOOOOOOOOOXXXXXXXXXXXXXXXXOOOOOOOOOOOOXXXXXXXXXX  ",
"  XXXXXXXXXXOOOOOOOOOOOOXXXXXXXXXXXXXXXXOOOOOOOOOOOOXXXXXXXXXX  ",
"  XXXXXXXXXXOOOOOOOOOOOOXXXXXXXXXXXXXXXXOOOOOOOOOOOOXXXXXXXXXX  ",
"  XXXXXXXXXXOOOOOOOOOOOOXXXXXXXXXXXXXXXXOOOOOOOOOOOOXXXXXXXXXX  ",
"  XXXX++++++++++++++++++++++++++++++++++++++++++++++++++++XXXX  ",
"  XXXX++++++++++++++++++++++++++++++++++++++++++++++++++++XXXX  ",
"  XXXX++++++++++++++++++++++++++++++++++++++++++++++++++++XXXX  ",
"  XXXX++++++++++++++++++++++++++++++++++++++++++++++++++++XXXX  ",
"  XXXXXXXXXXXXXXXXXXXXXXXXXXXXXXXXXXXXXXXXXXXXXXXXXXXXXXXXXXXX  ",
"  XXXXXXXXXXXXXXXXXXXXXXXXXXXXXXXXXXXXXXXXXXXXXXXXXXXXXXXXXXXX  ",
"  XXXXXXXXXXXXXXXXXXXXXXXXXXXXXXXXXXXXXXXXXXXXXXXXXXXXXXXXXXXX  ",
"  XXXXXXXXXXXXXXXXXXXXXXXXXXXXXXXXXXXXXXXXXXXXXXXXXXXXXXXXXXXX  ",
"  OOOOOOXXXX++++XXXXOOOOOOOOOOOOOOOOOOOOOOOOXXXX++++XXXXOOOOOO  ",
"  OOOOOOXXXX++++XXXXOOOOOOOOOOOOOOOOOOOOOOOOXXXX++++XXXXOOOOOO  ",
"  OOOOOOXXXX++++XXXXOOOOOOOOOOOOOOOOOOOOOOOOXXXX++++XXXXOOOOOO  ",
"  OOOOOOXXXX++++XXXXOOOOOOOOOOOOOOOOOOOOOOOOXXXX++++XXXXOOOOOO  ",
"  OOOOOOXXXXXXXXXXXXOOOO                OOOOXXXXXXXXXXXXOOOOOO  ",
"  OOOOOOXXXXXXXXXXXXOOOO                OOOOXXXXXXXXXXXXOOOOOO  ",
"  OOOOOOXXXXXXXXXXXXOOOO                OOOOXXXXXXXXXXXXOOOOOO  ",
"  OOOOOOXXXXXXXXXXXXOOOO                OOOOXXXXXXXXXXXXOOOOOO  ",
"    OOOOOOOOOOOOOOOOOOOO                OOOOOOOOOOOOOOOOOOOO    ",
"    OOOOOOOOOOOOOOOOOOOO                OOOOOOOOOOOOOOOOOOOO    ",
"    OOOOOOOOOOOOOOOOOOOO                OOOOOOOOOOOOOOOOOOOO    ",
"    OOOOOOOOOOOOOOOOOOOO                OOOOOOOOOOOOOOOOOOOO    ",
};
