/* XPM */
static char *result[] = {
/* columns rows colors chars-per-pixel */
"64 64 7 1 ",
"  c #14182E",
". c #E64539",
"X c #AD2F45",
"o c #F0B541",
"O c #FFEE83",
"+ c #F5FFE8",
"@ c None",
/* pixels */
"@@@@@@@@@@@@@@@@@@@@@@@@@@@@@@@@@@@@@@@@@@@@@@@@@@@@@@@@@@@@@@@@",
"@@@@@@@@@@@@@@@@@@@@@@@@@@@@@@@@@@@@@@@@@@@@@@@@@@@@@@@@@@@@@@@@",
"@@@@@@@@@@@@@@@@@@@@@@@@@@@@@@@@@@@@@@@@@@@@@@@@@@@@@@@@@@@@@@@@",
"@@@@@@@@@@@@@@@@@@@@@@@@@@@@@@@@@@@@@@@@@@@@@@@@@@@@@@@@@@@@@@@@",
"@@@@@@@@@@@@@@@@@@@@@@@@@@@@@@@@@@@@@@@@@@@@@@@@@@@@@@@@@@@@@@@@",
"@@@@@@@@@@@@@@@@@@@@@@@@@@@@@@@@@@@@@@@@@@@@@@@@@@@@@@@@@@@@@@@@",
"@@@@@@@@@@@@@@@@@@@@@@@@@@@@@@@@@@@@@@@@@@@@@@@@@@@@@@@@@@@@@@@@",
"@@@@@@@@@@@@@@@@@@@@@@@@@@@@@@@@@@@@@@@@@@@@@@@@@@@@@@@@@@@@@@@@",
"@@@@@@@@@@@@@@@@@@@@@@@@@@@@@@@@@@@@@@@@@@@@@@@@@@@@@@@@@@@@@@@@",
"@@@@@@@@@@@@@@@@@@@@@@@@@@@@@@@@@@@@@@@@@@@@@@@@@@@@@@@@@@@@@@@@",
"@@@@@@@@@@@@@@@@@@@@@@@@@@@@@@@@@@@@@@@@@@@@@@@@@@@@@@@@@@@@@@@@",
"@@@@@@@@@@@@@@@@@@@@@@@@@@@@@@@@@@@@@@@@@@@@@@@@@@@@@@@@@@@@@@@@",
"@@@@@@@@        @@@@@@@@@@@@@@@@@@@@@@@@@@@@@@@@        @@@@@@@@",
"@@@@@@@@        @@@@@@@@@@@@@@@@@@@@@@@@@@@@@@@@        @@@@@@@@",
"@@@@@@@@        @@@@@@@@@@@@@@@@@@@@@@@@@@@@@@@@        @@@@@@@@",
"@@@@@@@@        @@@@@@@@@@@@@@@@@@@@@@@@@@@@@@@@        @@@@@@@@",
"@@@@    OOOO                                        OOOO    @@@@",
"@@@@    OOOO                                        OOOO    @@@@",
"@@@@    OOOO                                        OOOO    @@@@",
"@@@@    OOOO                                        OOOO    @@@@",
"@@@@    OOOO    XXXXXXXXXXXXXXXXXXXXXXXXXXXXXXXX    OOOO    @@@@",
"@@@@    OOOO    XXXXXXXXXXXXXXXXXXXXXXXXXXXXXXXX    OOOO    @@@@",
"@@@@    OOOO    XXXXXXXXXXXXXXXXXXXXXXXXXXXXXXXX    OOOO    @@@@",
"@@@@    OOOO    XXXXXXXXXXXXXXXXXXXXXXXXXXXXXXXX    OOOO    @@@@",
"@@@@    ++++    ................................    ++++    @@@@",
"@@@@    ++++    ................................    ++++    @@@@",
"@@@@    ++++    ................................    ++++    @@@@",
"@@@@    ++++    ................................    ++++    @@@@",
"@@@@    OOOO    XXXXXXXXXXXXXXXXXXXXXXXXXXXXXXXX    OOOO    @@@@",
"@@@@    OOOO    XXXXXXXXXXXXXXXXXXXXXXXXXXXXXXXX    OOOO    @@@@",
"@@@@    OOOO    XXXXXXXXXXXXXXXXXXXXXXXXXXXXXXXX    OOOO    @@@@",
"@@@@    OOOO    XXXXXXXXXXXXXXXXXXXXXXXXXXXXXXXX    OOOO    @@@@",
"@@@@    OOOO    XXXXXXXX                XXXXXXXX    OOOO    @@@@",
"@@@@    OOOO    XXXXXXXX                XXXXXXXX    OOOO    @@@@",
"@@@@    OOOO    XXXXXXXX                XXXXXXXX    OOOO    @@@@",
"@@@@    OOOO    XXXXXXXX                XXXXXXXX    OOOO    @@@@",
"@@@@    OOOO            ++++++++++++++++            OOOO    @@@@",
"@@@@    OOOO            ++++++++++++++++            OOOO    @@@@",
"@@@@    OOOO            ++++++++++++++++            OOOO    @@@@",
"@@@@    OOOO            ++++++++++++++++            OOOO    @@@@",
"@@@@    OOOOOOOOOOOOooooOOOO        OOOOooooOOOOOOOOOOOO    @@@@",
"@@@@    OOOOOOOOOOOOooooOOOO        OOOOooooOOOOOOOOOOOO    @@@@",
"@@@@    OOOOOOOOOOOOooooOOOO        OOOOooooOOOOOOOOOOOO    @@@@",
"@@@@    OOOOOOOOOOOOooooOOOO        OOOOooooOOOOOOOOOOOO    @@@@",
"@@@@                    OOOO        OOOO                    @@@@",
"@@@@                    OOOO        OOOO                    @@@@",
"@@@@                    OOOO        OOOO                    @@@@",
"@@@@                    OOOO        OOOO                    @@@@",
"@@@@    oooo    XXXXXXXX    OOOOOOOO    XXXXXXXX    oooo    @@@@",
"@@@@    oooo    XXXXXXXX    OOOOOOOO    XXXXXXXX    oooo    @@@@",
"@@@@    oooo    XXXXXXXX    OOOOOOOO    XXXXXXXX    oooo    @@@@",
"@@@@    oooo    XXXXXXXX    OOOOOOOO    XXXXXXXX    oooo    @@@@",
"@@@@    OOOO                                        OOOO    @@@@",
"@@@@    OOOO                                        OOOO    @@@@",
"@@@@    OOOO                                        OOOO    @@@@",
"@@@@    OOOO                                        OOOO    @@@@",
"@@@@    OOOOOOOOOOOOOOOOOOOOOOOOOOOOOOOOOOOOOOOOOOOOOOOO    @@@@",
"@@@@    OOOOOOOOOOOOOOOOOOOOOOOOOOOOOOOOOOOOOOOOOOOOOOOO    @@@@",
"@@@@    OOOOOOOOOOOOOOOOOOOOOOOOOOOOOOOOOOOOOOOOOOOOOOOO    @@@@",
"@@@@    OOOOOOOOOOOOOOOOOOOOOOOOOOOOOOOOOOOOOOOOOOOOOOOO    @@@@",
"@@@@    oooo                                        oooo    @@@@",
"@@@@    oooo                                        oooo    @@@@",
"@@@@    oooo                                        oooo    @@@@",
"@@@@    oooo                                        oooo    @@@@",
};
