/* XPM */
static char *_02a0da5ad1d4708f0637bb325e7782cznfbVO6ABxiOkcJH[] = {
/* columns rows colors chars-per-pixel */
"64 64 10 1 ",
"  c None",
". c #14182E",
"X c #52333F",
"o c #2B2B45",
"O c #3A3F5E",
"+ c #8F4D57",
"@ c #BD6A62",
"# c #4FA4B8",
"$ c #FFC2A1",
"% c #DFE0E8",
/* pixels */
"                    ........................                    ",
"                    ........................                    ",
"                    ........................                    ",
"                    ........................                    ",
"                ....OOOOOOOOOOOOOOOOOOOOOOOO....                ",
"                ....OOOOOOOOOOOOOOOOOOOOOOOO....                ",
"                ....OOOOOOOOOOOOOOOOOOOOOOOO....                ",
"                ....OOOOOOOOOOOOOOOOOOOOOOOO....                ",
"            ....OOOOOOOOOOOOOOOOOOOOOOOOOOOOOOOO....            ",
"            ....OOOOOOOOOOOOOOOOOOOOOOOOOOOOOOOO....            ",
"            ....OOOOOOOOOOOOOOOOOOOOOOOOOOOOOOOO....            ",
"            ....OOOOOOOOOOOOOOOOOOOOOOOOOOOOOOOO....            ",
"            ....OOOOOOOOOOOOOOOOOOOOOOOOOOOOOOOO....            ",
"            ....OOOOOOOOOOOOOOOOOOOOOOOOOOOOOOOO....            ",
"            ....OOOOOOOOOOOOOOOOOOOOOOOOOOOOOOOO....            ",
"            ....OOOOOOOOOOOOOOOOOOOOOOOOOOOOOOOO....            ",
"            ....OOOOOOOOOOOOOOOOOOOO$$$$OOOOOOOO....            ",
"            ....OOOOOOOOOOOOOOOOOOOO$$$$OOOOOOOO....            ",
"            ....OOOOOOOOOOOOOOOOOOOO$$$$OOOOOOOO....            ",
"            ....OOOOOOOOOOOOOOOOOOOO$$$$OOOOOOOO....            ",
"            ....OOOOOOOOOOOOOOOOOOOO$$$$$$$$$$$$....            ",
"            ....OOOOOOOOOOOOOOOOOOOO$$$$$$$$$$$$....            ",
"            ....OOOOOOOOOOOOOOOOOOOO$$$$$$$$$$$$....            ",
"            ....OOOOOOOOOOOOOOOOOOOO$$$$$$$$$$$$....            ",
"            ....OOOOOOOOOOOOOOOOOOOOoooooooo$$$$....            ",
"            ....OOOOOOOOOOOOOOOOOOOOoooooooo$$$$....            ",
"            ....OOOOOOOOOOOOOOOOOOOOoooooooo$$$$....            ",
"            ....OOOOOOOOOOOOOOOOOOOOoooooooo$$$$....            ",
"            ....OOOOOOOO$$$$$$$$OOOO$$$$....$$$$....            ",
"            ....OOOOOOOO$$$$$$$$OOOO$$$$....$$$$....            ",
"            ....OOOOOOOO$$$$$$$$OOOO$$$$....$$$$....            ",
"            ....OOOOOOOO$$$$$$$$OOOO$$$$....$$$$....            ",
"                ....OOOO$$$$@@@@OOOO$$$$....@@@@....            ",
"                ....OOOO$$$$@@@@OOOO$$$$....@@@@....            ",
"                ....OOOO$$$$@@@@OOOO$$$$....@@@@....            ",
"                ....OOOO$$$$@@@@OOOO$$$$....@@@@....            ",
"                    ....OOOO$$$$$$$$$$$$$$$$....                ",
"                    ....OOOO$$$$$$$$$$$$$$$$....                ",
"                    ....OOOO$$$$$$$$$$$$$$$$....                ",
"                    ....OOOO$$$$$$$$$$$$$$$$....                ",
"                    ........XXXX@@@@........                    ",
"                    ........XXXX@@@@........                    ",
"                    ........XXXX@@@@........                    ",
"                    ........XXXX@@@@........                    ",
"                    ....%%%%....XXXX++++%%%%....                ",
"                    ....%%%%....XXXX++++%%%%....                ",
"                    ....%%%%....XXXX++++%%%%....                ",
"                    ....%%%%....XXXX++++%%%%....                ",
"                    ....$$$$@@@@....++++%%%%....                ",
"                    ....$$$$@@@@....++++%%%%....                ",
"                    ....$$$$@@@@....++++%%%%....                ",
"                    ....$$$$@@@@....++++%%%%....                ",
"                    ....$$$$$$$$....########....                ",
"                    ....$$$$$$$$....########....                ",
"                    ....$$$$$$$$....########....                ",
"                    ....$$$$$$$$....########....                ",
"                        ........@@@@@@@@....                    ",
"                        ........@@@@@@@@....                    ",
"                        ........@@@@@@@@....                    ",
"                        ........@@@@@@@@....                    ",
"                                ........                        ",
"                                ........                        ",
"                                ........                        ",
"                                ........                        ",
};
