/* XPM */
static char *f69e159f63cf4e3ace78e3746b21cc620tOx1J0sJldyV8YQ[] = {
/* columns rows colors chars-per-pixel */
"64 64 10 1 ",
"  c None",
". c #14182E",
"X c #52333F",
"o c #2B2B45",
"O c #3A3F5E",
"+ c #8F4D57",
"@ c #BD6A62",
"# c #4FA4B8",
"$ c #FFC2A1",
"% c #DFE0E8",
/* pixels */
"                    ........................                    ",
"                    ........................                    ",
"                    ........................                    ",
"                    ........................                    ",
"                ....OOOOOOOOOOOOOOOOOOOOOOOO....                ",
"                ....OOOOOOOOOOOOOOOOOOOOOOOO....                ",
"                ....OOOOOOOOOOOOOOOOOOOOOOOO....                ",
"                ....OOOOOOOOOOOOOOOOOOOOOOOO....                ",
"            ....OOOOOOOOOOOOOOOOOOOOOOOOOOOOOOOO....            ",
"            ....OOOOOOOOOOOOOOOOOOOOOOOOOOOOOOOO....            ",
"            ....OOOOOOOOOOOOOOOOOOOOOOOOOOOOOOOO....            ",
"            ....OOOOOOOOOOOOOOOOOOOOOOOOOOOOOOOO....            ",
"            ....OOOOOOOOOOOOOOOOOOOOOOOOOOOOOOOO....            ",
"            ....OOOOOOOOOOOOOOOOOOOOOOOOOOOOOOOO....            ",
"            ....OOOOOOOOOOOOOOOOOOOOOOOOOOOOOOOO....            ",
"            ....OOOOOOOOOOOOOOOOOOOOOOOOOOOOOOOO....            ",
"            ....OOOOOOOO$$$$OOOOOOOOOOOOOOOOOOOO....            ",
"            ....OOOOOOOO$$$$OOOOOOOOOOOOOOOOOOOO....            ",
"            ....OOOOOOOO$$$$OOOOOOOOOOOOOOOOOOOO....            ",
"            ....OOOOOOOO$$$$OOOOOOOOOOOOOOOOOOOO....            ",
"            ....$$$$$$$$$$$$OOOOOOOOOOOOOOOOOOOO....            ",
"            ....$$$$$$$$$$$$OOOOOOOOOOOOOOOOOOOO....            ",
"            ....$$$$$$$$$$$$OOOOOOOOOOOOOOOOOOOO....            ",
"            ....$$$$$$$$$$$$OOOOOOOOOOOOOOOOOOOO....            ",
"            ....$$$$ooooooooOOOOOOOOOOOOOOOOOOOO....            ",
"            ....$$$$ooooooooOOOOOOOOOOOOOOOOOOOO....            ",
"            ....$$$$ooooooooOOOOOOOOOOOOOOOOOOOO....            ",
"            ....$$$$ooooooooOOOOOOOOOOOOOOOOOOOO....            ",
"            ....$$$$....$$$$OOOO$$$$$$$$OOOOOOOO....            ",
"            ....$$$$....$$$$OOOO$$$$$$$$OOOOOOOO....            ",
"            ....$$$$....$$$$OOOO$$$$$$$$OOOOOOOO....            ",
"            ....$$$$....$$$$OOOO$$$$$$$$OOOOOOOO....            ",
"            ....@@@@....$$$$OOOO@@@@$$$$OOOO....                ",
"            ....@@@@....$$$$OOOO@@@@$$$$OOOO....                ",
"            ....@@@@....$$$$OOOO@@@@$$$$OOOO....                ",
"            ....@@@@....$$$$OOOO@@@@$$$$OOOO....                ",
"                ....$$$$$$$$$$$$$$$$OOOO....                    ",
"                ....$$$$$$$$$$$$$$$$OOOO....                    ",
"                ....$$$$$$$$$$$$$$$$OOOO....                    ",
"                ....$$$$$$$$$$$$$$$$OOOO....                    ",
"                    ........@@@@XXXX........                    ",
"                    ........@@@@XXXX........                    ",
"                    ........@@@@XXXX........                    ",
"                    ........@@@@XXXX........                    ",
"                ....%%%%++++XXXX....%%%%....                    ",
"                ....%%%%++++XXXX....%%%%....                    ",
"                ....%%%%++++XXXX....%%%%....                    ",
"                ....%%%%++++XXXX....%%%%....                    ",
"                ....%%%%++++....@@@@$$$$....                    ",
"                ....%%%%++++....@@@@$$$$....                    ",
"                ....%%%%++++....@@@@$$$$....                    ",
"                ....%%%%++++....@@@@$$$$....                    ",
"                ....########....$$$$$$$$....                    ",
"                ....########....$$$$$$$$....                    ",
"                ....########....$$$$$$$$....                    ",
"                ....########....$$$$$$$$....                    ",
"                    ....@@@@@@@@........                        ",
"                    ....@@@@@@@@........                        ",
"                    ....@@@@@@@@........                        ",
"                    ....@@@@@@@@........                        ",
"                        ........                                ",
"                        ........                                ",
"                        ........                                ",
"                        ........                                ",
};
