/* XPM */
static char *e465ea3acb8f4b359dbc09c7f1fc70fdBtIyBdbqjkcqlJlK[] = {
/* columns rows colors chars-per-pixel */
"64 64 9 1 ",
"  c None",
". c #14182E",
"X c #52333F",
"o c #3A3F5E",
"O c #8F4D57",
"+ c #BD6A62",
"@ c #4FA4B8",
"# c #FFC2A1",
"$ c #DFE0E8",
/* pixels */
"                    ........................                    ",
"                    ........................                    ",
"                    ........................                    ",
"                    ........................                    ",
"                ....oooooooooooooooooooooooo....                ",
"                ....oooooooooooooooooooooooo....                ",
"                ....oooooooooooooooooooooooo....                ",
"                ....oooooooooooooooooooooooo....                ",
"            ....oooooooooooooooooooooooooooooooo....            ",
"            ....oooooooooooooooooooooooooooooooo....            ",
"            ....oooooooooooooooooooooooooooooooo....            ",
"            ....oooooooooooooooooooooooooooooooo....            ",
"            ....oooooooooooooooooooooooooooooooo....            ",
"            ....oooooooooooooooooooooooooooooooo....            ",
"            ....oooooooooooooooooooooooooooooooo....            ",
"            ....oooooooooooooooooooooooooooooooo....            ",
"            ....oooooooooooooooooooooooooooooooo....            ",
"            ....oooooooooooooooooooooooooooooooo....            ",
"            ....oooooooooooooooooooooooooooooooo....            ",
"            ....oooooooooooooooooooooooooooooooo....            ",
"            ....oooooooooooooooooooooooooooooooo....            ",
"            ....oooooooooooooooooooooooooooooooo....            ",
"            ....oooooooooooooooooooooooooooooooo....            ",
"            ....oooooooooooooooooooooooooooooooo....            ",
"        ....####oooooooooooooooooooooooooooooooo####....        ",
"        ....####oooooooooooooooooooooooooooooooo####....        ",
"        ....####oooooooooooooooooooooooooooooooo####....        ",
"        ....####oooooooooooooooooooooooooooooooo####....        ",
"        ....####oooooooooooooooooooooooooooooooo####....        ",
"        ....####oooooooooooooooooooooooooooooooo####....        ",
"        ....####oooooooooooooooooooooooooooooooo####....        ",
"        ....####oooooooooooooooooooooooooooooooo####....        ",
"            ....++++oooooooooooooooooooooooo++++....            ",
"            ....++++oooooooooooooooooooooooo++++....            ",
"            ....++++oooooooooooooooooooooooo++++....            ",
"            ....++++oooooooooooooooooooooooo++++....            ",
"            ........++++++++oooooooo++++++++........            ",
"            ........++++++++oooooooo++++++++........            ",
"            ........++++++++oooooooo++++++++........            ",
"            ........++++++++oooooooo++++++++........            ",
"        ....####$$$$XXXX................XXXX$$$$####....        ",
"        ....####$$$$XXXX................XXXX$$$$####....        ",
"        ....####$$$$XXXX................XXXX$$$$####....        ",
"        ....####$$$$XXXX................XXXX$$$$####....        ",
"    ....####++++....XXXXOOOOXXXXXXXXOOOOXXXX....++++####....    ",
"    ....####++++....XXXXOOOOXXXXXXXXOOOOXXXX....++++####....    ",
"    ....####++++....XXXXOOOOXXXXXXXXOOOOXXXX....++++####....    ",
"    ....####++++....XXXXOOOOXXXXXXXXOOOOXXXX....++++####....    ",
"    ....########....XXXXXXXXOOOOOOOOXXXXXXXX....########....    ",
"    ....########....XXXXXXXXOOOOOOOOXXXXXXXX....########....    ",
"    ....########....XXXXXXXXOOOOOOOOXXXXXXXX....########....    ",
"    ....########....XXXXXXXXOOOOOOOOXXXXXXXX....########....    ",
"        ................@@@@@@@@@@@@@@@@................        ",
"        ................@@@@@@@@@@@@@@@@................        ",
"        ................@@@@@@@@@@@@@@@@................        ",
"        ................@@@@@@@@@@@@@@@@................        ",
"                ....++++++++........++++++++....                ",
"                ....++++++++........++++++++....                ",
"                ....++++++++........++++++++....                ",
"                ....++++++++........++++++++....                ",
"                    ........        ........                    ",
"                    ........        ........                    ",
"                    ........        ........                    ",
"                    ........        ........                    ",
};
