/* XPM */
static char *_9914eb13d104b0f9579076165e77512iuNJ6eMTgGF0rmkN[] = {
/* columns rows colors chars-per-pixel */
"64 64 11 1 ",
"  c None",
". c #14182E",
"X c #52333F",
"o c #2B2B45",
"O c #3A3F5E",
"+ c #8F4D57",
"@ c #BD6A62",
"# c #4C6885",
"$ c #4FA4B8",
"% c #FFC2A1",
"& c #DFE0E8",
/* pixels */
"                    ........................                    ",
"                    ........................                    ",
"                    ........................                    ",
"                    ........................                    ",
"                ....OOOOOOOOOOOOOOOOOOOOOOOO....                ",
"                ....OOOOOOOOOOOOOOOOOOOOOOOO....                ",
"                ....OOOOOOOOOOOOOOOOOOOOOOOO....                ",
"                ....OOOOOOOOOOOOOOOOOOOOOOOO....                ",
"            ....OOOOOOOOOOOOOOOOOOOOOOOOOOOOOOOO....            ",
"            ....OOOOOOOOOOOOOOOOOOOOOOOOOOOOOOOO....            ",
"            ....OOOOOOOOOOOOOOOOOOOOOOOOOOOOOOOO....            ",
"            ....OOOOOOOOOOOOOOOOOOOOOOOOOOOOOOOO....            ",
"            ....OOOOOOOOOOOOOOOOOOOOOOOOOOOOOOOO....            ",
"            ....OOOOOOOOOOOOOOOOOOOOOOOOOOOOOOOO....            ",
"            ....OOOOOOOOOOOOOOOOOOOOOOOOOOOOOOOO....            ",
"            ....OOOOOOOOOOOOOOOOOOOOOOOOOOOOOOOO....            ",
"            ....OOOO%%%%OOOOOOOOOOOOOOOO%%%%OOOO....            ",
"            ....OOOO%%%%OOOOOOOOOOOOOOOO%%%%OOOO....            ",
"            ....OOOO%%%%OOOOOOOOOOOOOOOO%%%%OOOO....            ",
"            ....OOOO%%%%OOOOOOOOOOOOOOOO%%%%OOOO....            ",
"            ....OOOO%%%%%%%%%%%%%%%%%%%%%%%%OOOO....            ",
"            ....OOOO%%%%%%%%%%%%%%%%%%%%%%%%OOOO....            ",
"            ....OOOO%%%%%%%%%%%%%%%%%%%%%%%%OOOO....            ",
"            ....OOOO%%%%%%%%%%%%%%%%%%%%%%%%OOOO....            ",
"        ....%%%%OOOOoooooooo%%%%%%%%ooooooooOOOO%%%%....        ",
"        ....%%%%OOOOoooooooo%%%%%%%%ooooooooOOOO%%%%....        ",
"        ....%%%%OOOOoooooooo%%%%%%%%ooooooooOOOO%%%%....        ",
"        ....%%%%OOOOoooooooo%%%%%%%%ooooooooOOOO%%%%....        ",
"        ....%%%%OOOO%%%%....%%%%%%%%....%%%%OOOO%%%%....        ",
"        ....%%%%OOOO%%%%....%%%%%%%%....%%%%OOOO%%%%....        ",
"        ....%%%%OOOO%%%%....%%%%%%%%....%%%%OOOO%%%%....        ",
"        ....%%%%OOOO%%%%....%%%%%%%%....%%%%OOOO%%%%....        ",
"            ....@@@@%%%%....@@@@@@@@....%%%%@@@@....            ",
"            ....@@@@%%%%....@@@@@@@@....%%%%@@@@....            ",
"            ....@@@@%%%%....@@@@@@@@....%%%%@@@@....            ",
"            ....@@@@%%%%....@@@@@@@@....%%%%@@@@....            ",
"            ........@@@@%%%%%%%%%%%%%%%%@@@@........            ",
"            ........@@@@%%%%%%%%%%%%%%%%@@@@........            ",
"            ........@@@@%%%%%%%%%%%%%%%%@@@@........            ",
"            ........@@@@%%%%%%%%%%%%%%%%@@@@........            ",
"        ....%%%%&&&&XXXX++++@@@@@@@@++++XXXX&&&&%%%%....        ",
"        ....%%%%&&&&XXXX++++@@@@@@@@++++XXXX&&&&%%%%....        ",
"        ....%%%%&&&&XXXX++++@@@@@@@@++++XXXX&&&&%%%%....        ",
"        ....%%%%&&&&XXXX++++@@@@@@@@++++XXXX&&&&%%%%....        ",
"    ....%%%%@@@@....XXXX++++&&&&&&&&++++XXXX....@@@@%%%%....    ",
"    ....%%%%@@@@....XXXX++++&&&&&&&&++++XXXX....@@@@%%%%....    ",
"    ....%%%%@@@@....XXXX++++&&&&&&&&++++XXXX....@@@@%%%%....    ",
"    ....%%%%@@@@....XXXX++++&&&&&&&&++++XXXX....@@@@%%%%....    ",
"    ....%%%%%%%%....++++++++&&&&&&&&++++++++....%%%%%%%%....    ",
"    ....%%%%%%%%....++++++++&&&&&&&&++++++++....%%%%%%%%....    ",
"    ....%%%%%%%%....++++++++&&&&&&&&++++++++....%%%%%%%%....    ",
"    ....%%%%%%%%....++++++++&&&&&&&&++++++++....%%%%%%%%....    ",
"        ................####$$$$$$$$####................        ",
"        ................####$$$$$$$$####................        ",
"        ................####$$$$$$$$####................        ",
"        ................####$$$$$$$$####................        ",
"                ....@@@@@@@@........@@@@@@@@....                ",
"                ....@@@@@@@@........@@@@@@@@....                ",
"                ....@@@@@@@@........@@@@@@@@....                ",
"                ....@@@@@@@@........@@@@@@@@....                ",
"                    ........        ........                    ",
"                    ........        ........                    ",
"                    ........        ........                    ",
"                    ........        ........                    ",
};
