/* XPM */
static char *result[] = {
/* columns rows colors chars-per-pixel */
"64 64 5 1 ",
"  c #1c1a1c",
". c #847E87",
"X c #9BADB7",
"o c #CBDBFC",
"O c None",
/* pixels */
"OOOOOOOOOOOO                OOOOOOOOOOOOOOOOOOOOOOOOOOOOOOOOOOOO",
"OOOOOOOOOOOO                OOOOOOOOOOOOOOOOOOOOOOOOOOOOOOOOOOOO",
"OOOOOOOOOOOO                OOOOOOOOOOOOOOOOOOOOOOOOOOOOOOOOOOOO",
"OOOOOOOOOOOO                OOOOOOOOOOOOOOOOOOOOOOOOOOOOOOOOOOOO",
"OOOOOOOO    oooooooooooooooo    OOOOOOOOOOOOOOOOOOOOOOOOOOOOOOOO",
"OOOOOOOO    oooooooooooooooo    OOOOOOOOOOOOOOOOOOOOOOOOOOOOOOOO",
"OOOOOOOO    oooooooooooooooo    OOOOOOOOOOOOOOOOOOOOOOOOOOOOOOOO",
"OOOOOOOO    oooooooooooooooo    OOOOOOOOOOOOOOOOOOOOOOOOOOOOOOOO",
"OOOO    XXXXXXXXXXXXXXXXXXXXoooo    OOOOOOOOOOOOOOOOOOOOOOOOOOOO",
"OOOO    XXXXXXXXXXXXXXXXXXXXoooo    OOOOOOOOOOOOOOOOOOOOOOOOOOOO",
"OOOO    XXXXXXXXXXXXXXXXXXXXoooo    OOOOOOOOOOOOOOOOOOOOOOOOOOOO",
"OOOO    XXXXXXXXXXXXXXXXXXXXoooo    OOOOOOOOOOOOOOOOOOOOOOOOOOOO",
"OOOO    XXXXoooo        XXXXoooo    OOOOOOOOOOOOOOOOOOOOOOOOOOOO",
"OOOO    XXXXoooo        XXXXoooo    OOOOOOOOOOOOOOOOOOOOOOOOOOOO",
"OOOO    XXXXoooo        XXXXoooo    OOOOOOOOOOOOOOOOOOOOOOOOOOOO",
"OOOO    XXXXoooo        XXXXoooo    OOOOOOOOOOOOOOOOOOOOOOOOOOOO",
"OOOO    ....oooo        XXXXoooo    OOOOOOOOOOOOOOOOOOOOOOOOOOOO",
"OOOO    ....oooo        XXXXoooo    OOOOOOOOOOOOOOOOOOOOOOOOOOOO",
"OOOO    ....oooo        XXXXoooo    OOOOOOOOOOOOOOOOOOOOOOOOOOOO",
"OOOO    ....oooo        XXXXoooo    OOOOOOOOOOOOOOOOOOOOOOOOOOOO",
"OOOO    ....XXXXooooooooXXXXoooo    OOOOOOOOOOOOOOOOOOOOOOOOOOOO",
"OOOO    ....XXXXooooooooXXXXoooo    OOOOOOOOOOOOOOOOOOOOOOOOOOOO",
"OOOO    ....XXXXooooooooXXXXoooo    OOOOOOOOOOOOOOOOOOOOOOOOOOOO",
"OOOO    ....XXXXooooooooXXXXoooo    OOOOOOOOOOOOOOOOOOOOOOOOOOOO",
"OOOOOOOO    ........XXXXXXXXXXXXoooo    OOOOOOOOOOOOOOOOOOOOOOOO",
"OOOOOOOO    ........XXXXXXXXXXXXoooo    OOOOOOOOOOOOOOOOOOOOOOOO",
"OOOOOOOO    ........XXXXXXXXXXXXoooo    OOOOOOOOOOOOOOOOOOOOOOOO",
"OOOOOOOO    ........XXXXXXXXXXXXoooo    OOOOOOOOOOOOOOOOOOOOOOOO",
"OOOOOOOOOOOO                ....XXXXoooo    OOOOOOOOOOOOOOOOOOOO",
"OOOOOOOOOOOO                ....XXXXoooo    OOOOOOOOOOOOOOOOOOOO",
"OOOOOOOOOOOO                ....XXXXoooo    OOOOOOOOOOOOOOOOOOOO",
"OOOOOOOOOOOO                ....XXXXoooo    OOOOOOOOOOOOOOOOOOOO",
"OOOOOOOOOOOOOOOOOOOOOOOOOOOO    XXXXXXXXoooo    OOOOOOOOOOOOOOOO",
"OOOOOOOOOOOOOOOOOOOOOOOOOOOO    XXXXXXXXoooo    OOOOOOOOOOOOOOOO",
"OOOOOOOOOOOOOOOOOOOOOOOOOOOO    XXXXXXXXoooo    OOOOOOOOOOOOOOOO",
"OOOOOOOOOOOOOOOOOOOOOOOOOOOO    XXXXXXXXoooo    OOOOOOOOOOOOOOOO",
"OOOOOOOOOOOOOOOOOOOOOOOO    XXXX    ....XXXXoooo    OOOOOOOOOOOO",
"OOOOOOOOOOOOOOOOOOOOOOOO    XXXX    ....XXXXoooo    OOOOOOOOOOOO",
"OOOOOOOOOOOOOOOOOOOOOOOO    XXXX    ....XXXXoooo    OOOOOOOOOOOO",
"OOOOOOOOOOOOOOOOOOOOOOOO    XXXX    ....XXXXoooo    OOOOOOOOOOOO",
"OOOOOOOOOOOOOOOOOOOOOOOOOOOO    OOOO    ....XXXXoooo    OOOOOOOO",
"OOOOOOOOOOOOOOOOOOOOOOOOOOOO    OOOO    ....XXXXoooo    OOOOOOOO",
"OOOOOOOOOOOOOOOOOOOOOOOOOOOO    OOOO    ....XXXXoooo    OOOOOOOO",
"OOOOOOOOOOOOOOOOOOOOOOOOOOOO    OOOO    ....XXXXoooo    OOOOOOOO",
"OOOOOOOOOOOOOOOOOOOOOOOOOOOOOOOOOOOOOOOO    XXXXXXXXoooo    OOOO",
"OOOOOOOOOOOOOOOOOOOOOOOOOOOOOOOOOOOOOOOO    XXXXXXXXoooo    OOOO",
"OOOOOOOOOOOOOOOOOOOOOOOOOOOOOOOOOOOOOOOO    XXXXXXXXoooo    OOOO",
"OOOOOOOOOOOOOOOOOOOOOOOOOOOOOOOOOOOOOOOO    XXXXXXXXoooo    OOOO",
"OOOOOOOOOOOOOOOOOOOOOOOOOOOOOOOOOOOO    XXXXXXXX....    OOOOOOOO",
"OOOOOOOOOOOOOOOOOOOOOOOOOOOOOOOOOOOO    XXXXXXXX....    OOOOOOOO",
"OOOOOOOOOOOOOOOOOOOOOOOOOOOOOOOOOOOO    XXXXXXXX....    OOOOOOOO",
"OOOOOOOOOOOOOOOOOOOOOOOOOOOOOOOOOOOO    XXXXXXXX....    OOOOOOOO",
"OOOOOOOOOOOOOOOOOOOOOOOOOOOOOOOO    ....XXXX....    OOOOOOOOOOOO",
"OOOOOOOOOOOOOOOOOOOOOOOOOOOOOOOO    ....XXXX....    OOOOOOOOOOOO",
"OOOOOOOOOOOOOOOOOOOOOOOOOOOOOOOO    ....XXXX....    OOOOOOOOOOOO",
"OOOOOOOOOOOOOOOOOOOOOOOOOOOOOOOO    ....XXXX....    OOOOOOOOOOOO",
"OOOOOOOOOOOOOOOOOOOOOOOOOOOOOOOOOOOO    ....    OOOOOOOOOOOOOOOO",
"OOOOOOOOOOOOOOOOOOOOOOOOOOOOOOOOOOOO    ....    OOOOOOOOOOOOOOOO",
"OOOOOOOOOOOOOOOOOOOOOOOOOOOOOOOOOOOO    ....    OOOOOOOOOOOOOOOO",
"OOOOOOOOOOOOOOOOOOOOOOOOOOOOOOOOOOOO    ....    OOOOOOOOOOOOOOOO",
"OOOOOOOOOOOOOOOOOOOOOOOOOOOOOOOOOOOOOOOO    OOOOOOOOOOOOOOOOOOOO",
"OOOOOOOOOOOOOOOOOOOOOOOOOOOOOOOOOOOOOOOO    OOOOOOOOOOOOOOOOOOOO",
"OOOOOOOOOOOOOOOOOOOOOOOOOOOOOOOOOOOOOOOO    OOOOOOOOOOOOOOOOOOOO",
"OOOOOOOOOOOOOOOOOOOOOOOOOOOOOOOOOOOOOOOO    OOOOOOOOOOOOOOOOOOOO",
};
