/* XPM */
static char *result[] = {
/* columns rows colors chars-per-pixel */
"64 64 5 1 ",
"  c #181425",
". c #404973",
"X c #686F99",
"o c #A3A7C2",
"O c None",
/* pixels */
"OOOOOOOOOOOOOOOOOOOOOOOOOOOOOOOOOOOOOOOOOOOOOOOOOOOOOOOOOOOOOOOO",
"OOOOOOOOOOOOOOOOOOOOOOOOOOOOOOOOOOOOOOOOOOOOOOOOOOOOOOOOOOOOOOOO",
"OOOOOOOOOOOOOOOOOOOOOOOOOOOOOOOOOOOOOOOOOOOOOOOOOOOOOOOOOOOOOOOO",
"OOOOOOOOOOOOOOOOOOOOOOOOOOOOOOOOOOOOOOOOOOOOOOOOOOOOOOOOOOOOOOOO",
"OOOOOOOOOOOOOOOO                                OOOOOOOOOOOOOOOO",
"OOOOOOOOOOOOOOOO                                OOOOOOOOOOOOOOOO",
"OOOOOOOOOOOOOOOO                                OOOOOOOOOOOOOOOO",
"OOOOOOOOOOOOOOOO                                OOOOOOOOOOOOOOOO",
"OOOOOOOOOOOO    XXXXooooooooooooooooooooooooXXXX    OOOOOOOOOOOO",
"OOOOOOOOOOOO    XXXXooooooooooooooooooooooooXXXX    OOOOOOOOOOOO",
"OOOOOOOOOOOO    XXXXooooooooooooooooooooooooXXXX    OOOOOOOOOOOO",
"OOOOOOOOOOOO    XXXXooooooooooooooooooooooooXXXX    OOOOOOOOOOOO",
"OOOOOOOO    XXXXooooooooooooooooooooooooooooooooXXXX    OOOOOOOO",
"OOOOOOOO    XXXXooooooooooooooooooooooooooooooooXXXX    OOOOOOOO",
"OOOOOOOO    XXXXooooooooooooooooooooooooooooooooXXXX    OOOOOOOO",
"OOOOOOOO    XXXXooooooooooooooooooooooooooooooooXXXX    OOOOOOOO",
"OOOO    XXXXooooooooooooooooooooooooooooooooooooooooXXXX    OOOO",
"OOOO    XXXXooooooooooooooooooooooooooooooooooooooooXXXX    OOOO",
"OOOO    XXXXooooooooooooooooooooooooooooooooooooooooXXXX    OOOO",
"OOOO    XXXXooooooooooooooooooooooooooooooooooooooooXXXX    OOOO",
"    XXXXooooooooooooooooooooooooooooooooooooooooooooooooXXXX    ",
"    XXXXooooooooooooooooooooooooooooooooooooooooooooooooXXXX    ",
"    XXXXooooooooooooooooooooooooooooooooooooooooooooooooXXXX    ",
"    XXXXooooooooooooooooooooooooooooooooooooooooooooooooXXXX    ",
"    XXXXooooooooooooooooooooooooooooooooooooooooooooooooXXXX    ",
"    XXXXooooooooooooooooooooooooooooooooooooooooooooooooXXXX    ",
"    XXXXooooooooooooooooooooooooooooooooooooooooooooooooXXXX    ",
"    XXXXooooooooooooooooooooooooooooooooooooooooooooooooXXXX    ",
"    ....XXXXooooooooooooooooooooooooooooooooooooooooXXXX....    ",
"    ....XXXXooooooooooooooooooooooooooooooooooooooooXXXX....    ",
"    ....XXXXooooooooooooooooooooooooooooooooooooooooXXXX....    ",
"    ....XXXXooooooooooooooooooooooooooooooooooooooooXXXX....    ",
"    ........XXXXooooooooooooooooooooooooooooooooXXXX........    ",
"    ........XXXXooooooooooooooooooooooooooooooooXXXX........    ",
"    ........XXXXooooooooooooooooooooooooooooooooXXXX........    ",
"    ........XXXXooooooooooooooooooooooooooooooooXXXX........    ",
"    ............XXXXooooooooooooooooooooooooXXXX............    ",
"    ............XXXXooooooooooooooooooooooooXXXX............    ",
"    ............XXXXooooooooooooooooooooooooXXXX............    ",
"    ............XXXXooooooooooooooooooooooooXXXX............    ",
"    ................XXXXXXXXXXXXXXXXXXXXXXXX................    ",
"    ................XXXXXXXXXXXXXXXXXXXXXXXX................    ",
"    ................XXXXXXXXXXXXXXXXXXXXXXXX................    ",
"    ................XXXXXXXXXXXXXXXXXXXXXXXX................    ",
"    ................XXXXXXXXXXXXXXXXXXXXXXXX................    ",
"    ................XXXXXXXXXXXXXXXXXXXXXXXX................    ",
"    ................XXXXXXXXXXXXXXXXXXXXXXXX................    ",
"    ................XXXXXXXXXXXXXXXXXXXXXXXX................    ",
"OOOO    ............XXXXXXXXXXXXXXXXXXXXXXXX............    OOOO",
"OOOO    ............XXXXXXXXXXXXXXXXXXXXXXXX............    OOOO",
"OOOO    ............XXXXXXXXXXXXXXXXXXXXXXXX............    OOOO",
"OOOO    ............XXXXXXXXXXXXXXXXXXXXXXXX............    OOOO",
"OOOOOOOO    ........XXXXXXXXXXXXXXXXXXXXXXXX........    OOOOOOOO",
"OOOOOOOO    ........XXXXXXXXXXXXXXXXXXXXXXXX........    OOOOOOOO",
"OOOOOOOO    ........XXXXXXXXXXXXXXXXXXXXXXXX........    OOOOOOOO",
"OOOOOOOO    ........XXXXXXXXXXXXXXXXXXXXXXXX........    OOOOOOOO",
"OOOOOOOOOOOO    ....XXXXXXXXXXXXXXXXXXXXXXXX....    OOOOOOOOOOOO",
"OOOOOOOOOOOO    ....XXXXXXXXXXXXXXXXXXXXXXXX....    OOOOOOOOOOOO",
"OOOOOOOOOOOO    ....XXXXXXXXXXXXXXXXXXXXXXXX....    OOOOOOOOOOOO",
"OOOOOOOOOOOO    ....XXXXXXXXXXXXXXXXXXXXXXXX....    OOOOOOOOOOOO",
"OOOOOOOOOOOOOOOO                                OOOOOOOOOOOOOOOO",
"OOOOOOOOOOOOOOOO                                OOOOOOOOOOOOOOOO",
"OOOOOOOOOOOOOOOO                                OOOOOOOOOOOOOOOO",
"OOOOOOOOOOOOOOOO                                OOOOOOOOOOOOOOOO",
};
